# xmcd
#
# Track frame offsets:
#	150
#	14754
#	28834
#	43761
#	58023
#	72699
#	86592
#	101141
#	117578
#	130820
#	146286
#	160329
#	175210
#	192638
#	206121
#	221161
#
# Disc length: 3153 seconds
#
# Revision: 1
# Processed by: cddbd v1.5.2PL0 Copyright (c) Steve Scherf et al.
# Submitted via: EasyCDDAExtractor 16.0.8.2
#
DISCID=040c4f10
DTITLE=Συλλογικός δίσκος - Ελληνικό Πάσχα 5
DYEAR=2012
DGENRE=Παραδοσιακή
TTITLE0=Παπασιδέρης Γιώργος - Του Κίτσου η μάννα [παραδοσιακό]
TTITLE1=Παπασιδέρης Γιώργος - Σαράντα παλληκάρια [διασ. Γ.Παπασιδέρης-Παν.Τούν
TTITLE1=τας]
TTITLE2=Κιτσάκης Αλέκος-Λήττου Στέλλα - Άσπρο τριαντάφυλλο κρατώ [Αλ. Κιτσάκης
TTITLE2=]
TTITLE3=Παπασιδέρης Γιώργος - Συννέφιασε ο Παρνασσός [παραδοσιακό]
TTITLE4=Τσαούσης Ανδρέας - Βελανιδιά στο Ζάλογγο [Γ.Κόρος-Γραμμ.Θεοδωροπούλου]
TTITLE5=Κολλητήρη Σοφία - Ο Λιούλιος [διασκ. Γ. Κόρος]
TTITLE6=Κάβουρας Στάθης - Μάννα με τα πολλά παιδιά [Γ. Κόρος-Στάθης Κάβουρας]
TTITLE7=Καρακώστας Νίκος - Κατακαϋμένη Αράχωβα [Γ. Μηττάκη-Σπ. Περιστέρης]
TTITLE8=Κιτσάκης Αλέκος - Δεν μπορώ μαννούλα μου [διασκ. Αλ. Κιτσάκης]
TTITLE9=Κοντόπουλος Χρήστος - Κολοκοτρώνης φώναξε [Χρ. Κοντόπουλος]
TTITLE10=Άνευ ερμηνευτού - Αμερική [σόλο κλ. Βασ. Σαλέας]
TTITLE11=Άνευ ερμηνευτού - Γαϊτανάκι [σόλο κλ. Νίκος Καρακώστας]
TTITLE12=Σαμίου Δόμνα-Αθανασιάδης Χάρης - Γιάννη μου το μαντήλι σου [διασκ. Δ.
TTITLE12=Σαμίου]
TTITLE13=Τσίτρα Νίτσα-Κουφογιάγκος Κ. - Μήλο μου κόκκινο [παραδοσιακό]
TTITLE14=Βέρρα Τασία-Βέρρας Κώστας - Τι να σε κάνω Γαλανή [Βασ. Σαλέας]
TTITLE15=Χατζηδάκη Άννα-Χατζηδάκη Αιμιλία - Μέσ' στου Αιγαίου τα νησιά [Σταμ. 
TTITLE15=Χατζηδάκης]
EXTD=
EXTT0=
EXTT1=
EXTT2=
EXTT3=
EXTT4=
EXTT5=
EXTT6=
EXTT7=
EXTT8=
EXTT9=
EXTT10=
EXTT11=
EXTT12=
EXTT13=
EXTT14=
EXTT15=
PLAYORDER=
